<svg width="256" height="256" viewBox="0 0 256 256" fill="white" xmlns="http://www.w3.org/2000/svg">
  <path d="M94 32c0-13.255 10.745-24 24-24s24 10.745 24 24c0 7.76-3.676 14.676-9.364 19.16C140.41 62.22 150 76.41 150 92c0 13.255 10.745 24 24 24s24-10.745 24-24c0-7.76-3.676-14.676-9.364-19.16C200.41 62.22 210 76.41 210 92v72c0 8.837-7.163 16-16 16h-48c-8.837 0-16-7.163-16-16 0-13.255-10.745-24-24-24s-24 10.745-24 24c0 8.837-7.163 16-16 16H18c-8.837 0-16-7.163-16-16v-48c0-8.837 7.163-16 16-16 13.255 0 24-10.745 24-24s-10.745-24-24-24c-8.837 0-16-7.163-16-16V48c0-8.837 7.163-16 16-16h72c8.837 0 16 7.163 16 16z"/>
</svg>

